<svg width="90" height="48" viewBox="0 0 90 48" fill="none" xmlns="http://www.w3.org/2000/svg">
<rect x="0.5" y="0.5" width="89" height="47" rx="5.5"/>
<path fill-rule="evenodd" clip-rule="evenodd" d="M26.6924 17.8659C27.6325 17.9452 28.5726 17.3901 29.1601 16.6863C29.7379 15.9627 30.1198 14.9913 30.0219 14C29.1895 14.0397 28.1613 14.5551 27.5737 15.2787C27.0352 15.9032 26.5749 16.9143 26.6924 17.8659ZM37.8755 30.6333V15.1796H43.6041C46.5615 15.1796 48.6277 17.2414 48.6277 20.2548C48.6277 23.2683 46.5223 25.3499 43.5258 25.3499H40.2453V30.6333H37.8755ZM30.012 18.0542C29.1838 18.006 28.4281 18.3064 27.8177 18.549C27.4249 18.7051 27.0923 18.8373 26.8392 18.8373C26.5552 18.8373 26.2089 18.6981 25.82 18.5417L25.82 18.5417L25.82 18.5417L25.82 18.5417C25.3104 18.3368 24.7278 18.1025 24.1169 18.1137C22.7166 18.1335 21.4142 18.9365 20.6993 20.2152C19.2304 22.7726 20.3174 26.5593 21.7373 28.6409C22.4326 29.6718 23.265 30.8018 24.3617 30.7622C24.8442 30.7438 25.1913 30.5947 25.5505 30.4404C25.9641 30.2628 26.3937 30.0782 27.0645 30.0782C27.712 30.0782 28.1228 30.2579 28.5172 30.4305C28.8921 30.5945 29.2522 30.752 29.7868 30.7424C30.9227 30.7225 31.6376 29.7115 32.3328 28.6806C33.0831 27.5741 33.4129 26.4943 33.4629 26.3304L33.4688 26.3114C33.4676 26.3102 33.4583 26.3059 33.4419 26.2984C33.1911 26.1821 31.274 25.2937 31.2557 22.9114C31.2372 20.9118 32.7762 19.8987 33.0185 19.7392C33.0332 19.7295 33.0432 19.723 33.0477 19.7196C32.0684 18.2525 30.5408 18.0939 30.012 18.0542ZM52.9561 30.7523C54.4445 30.7523 55.8253 29.989 56.452 28.7797H56.501V30.6333H58.6945V22.9412C58.6945 20.7108 56.9318 19.2735 54.2193 19.2735C51.7026 19.2735 49.842 20.7307 49.7735 22.733H51.9083C52.0845 21.7814 52.9561 21.1569 54.1508 21.1569C55.6 21.1569 56.4128 21.8409 56.4128 23.0998V23.9522L53.4555 24.1307C50.7038 24.2992 49.2153 25.4391 49.2153 27.4217C49.2153 29.424 50.7527 30.7523 52.9561 30.7523ZM53.5924 28.9185C52.3292 28.9185 51.5262 28.3039 51.5262 27.3622C51.5262 26.3908 52.2998 25.8257 53.7785 25.7365L56.4127 25.568V26.4403C56.4127 27.8876 55.1984 28.9185 53.5924 28.9185ZM65.9702 31.238C65.0204 33.9442 63.9334 34.8363 61.6224 34.8363C61.4461 34.8363 60.8585 34.8165 60.7214 34.7768V32.9232C60.8683 32.943 61.2307 32.9628 61.4167 32.9628C62.4645 32.9628 63.0521 32.5167 63.4144 31.357L63.6298 30.673L59.6149 19.4222H62.0924L64.8833 28.5517H64.9322L67.7231 19.4222H70.1321L65.9702 31.238ZM40.2451 17.2018H42.9772C45.0336 17.2018 46.2087 18.312 46.2087 20.2648C46.2087 22.2175 45.0336 23.3377 42.9674 23.3377H40.2451V17.2018Z" fill="black"/>
</svg>
