<svg width="90" height="48" viewBox="0 0 90 48" fill="none" xmlns="http://www.w3.org/2000/svg">
<rect x="0.5" y="0.5" width="89" height="47" rx="5.5" />
<path fill-rule="evenodd" clip-rule="evenodd" d="M43.0603 31.5161V25.4742H46.1786C47.4564 25.4742 48.535 25.046 49.4142 24.2016L49.6252 23.9875C51.2313 22.2392 51.1258 19.5156 49.4142 17.898C48.5584 17.0417 47.3861 16.5779 46.1786 16.6016H41.1729V31.5161H43.0603ZM43.0605 23.6426V18.4332H46.2262C46.9063 18.4332 47.5512 18.6949 48.0319 19.1706C49.052 20.1697 49.0754 21.8348 48.0905 22.8695C47.6098 23.3809 46.9297 23.6664 46.2262 23.6426H43.0605ZM58.4293 22.1084C57.6204 21.3591 56.5185 20.9785 55.1234 20.9785C53.3298 20.9785 51.9816 21.6445 51.0906 22.9647L52.7553 24.0232C53.3649 23.1193 54.1973 22.6673 55.2524 22.6673C55.9206 22.6673 56.5653 22.9171 57.0694 23.3691C57.5618 23.7972 57.8432 24.4157 57.8432 25.0698V25.5099C57.1163 25.1055 56.2019 24.8914 55.0765 24.8914C53.7635 24.8914 52.7084 25.2007 51.923 25.831C51.1375 26.4614 50.739 27.2939 50.739 28.3525C50.7155 29.3158 51.1258 30.2316 51.8527 30.8501C52.5912 31.5161 53.5291 31.8491 54.631 31.8491C55.9323 31.8491 56.9639 31.2664 57.7494 30.1008H57.8314V31.5161H59.6368V25.2245C59.6368 23.9043 59.2382 22.8576 58.4293 22.1084ZM53.3066 29.6369C52.9197 29.3515 52.6852 28.8877 52.6852 28.3881C52.6852 27.8291 52.9432 27.3653 53.4473 26.9966C53.9632 26.6279 54.6081 26.4376 55.3702 26.4376C56.4255 26.4257 57.2462 26.6636 57.8325 27.1393C57.8325 27.9481 57.5159 28.6498 56.8945 29.2445C56.3317 29.8153 55.5696 30.1365 54.7723 30.1365C54.2446 30.1484 53.7287 29.97 53.3066 29.6369ZM63.693 36L70.0001 21.3115H67.9485L65.0295 28.6379H64.9943L62.0049 21.3115H59.9534L64.0916 30.862L61.747 36H63.693Z" fill="#3C4043"/>
<path d="M36.5442 24.1659C36.5442 23.5831 36.4973 23.0004 36.4035 22.4295H28.4435V25.724H33.0038C32.8162 26.7825 32.2066 27.734 31.3156 28.3286V30.4695H34.0354C35.6298 28.9828 36.5442 26.7825 36.5442 24.1659Z" fill="#4285F4"/>
<path d="M28.4438 32.539C30.7181 32.539 32.6407 31.7778 34.0358 30.4695L31.316 28.3287C30.554 28.852 29.581 29.1493 28.4438 29.1493C26.2399 29.1493 24.3759 27.6388 23.7077 25.6169H20.9059V27.8291C22.3361 30.7193 25.2552 32.539 28.4438 32.539Z" fill="#34A853"/>
<path d="M23.708 25.617C23.3563 24.5584 23.3563 23.4048 23.708 22.3343V20.134H20.9058C19.6981 22.5484 19.6981 25.4029 20.9058 27.8173L23.708 25.617Z" fill="#FBBC04"/>
<path d="M28.4438 18.8019C29.6513 18.7782 30.8119 19.242 31.6794 20.0864L34.0944 17.6364C32.5587 16.1854 30.5423 15.3885 28.4438 15.4123C25.2552 15.4123 22.3361 17.2439 20.9059 20.134L23.7077 22.3462C24.3759 20.3124 26.2399 18.8019 28.4438 18.8019Z" fill="#EA4335"/>
</svg>
