<svg width="90" height="48" viewBox="0 0 90 48" fill="none" xmlns="http://www.w3.org/2000/svg">
<rect x="0.5" y="0.5" width="89" height="47" rx="5.5" />
<path fill-rule="evenodd" clip-rule="evenodd" d="M45.5 34.3139C43.1169 36.3704 40.0255 37.6119 36.6475 37.6119C29.1102 37.6119 23 31.4308 23 23.806C23 16.1811 29.1102 10 36.6475 10C40.0255 10 43.1169 11.2415 45.5 13.2981C47.8831 11.2415 50.9745 10 54.3525 10C61.8898 10 68 16.1811 68 23.806C68 31.4308 61.8898 37.6119 54.3525 37.6119C50.9745 37.6119 47.8831 36.3704 45.5 34.3139Z" fill="#ED0006"/>
<path fill-rule="evenodd" clip-rule="evenodd" d="M45.5 34.3139C48.4344 31.7816 50.2951 28.0136 50.2951 23.806C50.2951 19.5983 48.4344 15.8303 45.5 13.2981C47.8831 11.2415 50.9745 10 54.3525 10C61.8898 10 68 16.1811 68 23.806C68 31.4308 61.8898 37.6119 54.3525 37.6119C50.9745 37.6119 47.8831 36.3704 45.5 34.3139Z" fill="#F9A000"/>
<path fill-rule="evenodd" clip-rule="evenodd" d="M45.5 13.2981C48.4344 15.8304 50.2951 19.5984 50.2951 23.806C50.2951 28.0136 48.4344 31.7816 45.5 34.3138C42.5657 31.7816 40.705 28.0136 40.705 23.806C40.705 19.5984 42.5657 15.8304 45.5 13.2981Z" fill="#FF5E00"/>
</svg>
