<svg width="90" height="48" viewBox="0 0 90 48" fill="none" xmlns="http://www.w3.org/2000/svg">
<rect x="0.5" y="0.5" width="89" height="47" rx="5.5" />
<path fill-rule="evenodd" clip-rule="evenodd" d="M29.8 30.4819H26.6888C26.4759 30.4819 26.2948 30.6366 26.2616 30.8467L25.0033 38.8248C24.9783 38.9823 25.1002 39.1242 25.2599 39.1242H26.7452C26.9581 39.1242 27.1392 38.9695 27.1724 38.759L27.5118 36.6072C27.5445 36.3964 27.726 36.2419 27.9385 36.2419H28.9234C30.9729 36.2419 32.1556 35.2501 32.4647 33.2848C32.6038 32.425 32.4705 31.7495 32.0678 31.2762C31.6257 30.7568 30.8413 30.4819 29.8 30.4819ZM30.159 33.3958C29.9889 34.5122 29.1358 34.5122 28.3111 34.5122H27.8416L28.1709 32.4271C28.1905 32.3013 28.2997 32.2084 28.4271 32.2084H28.6422C29.2041 32.2084 29.7341 32.2084 30.008 32.5286C30.1712 32.7198 30.2213 33.0036 30.159 33.3958ZM39.1002 33.36H37.6103C37.4834 33.36 37.3737 33.4528 37.3541 33.5789L37.2882 33.9956L37.184 33.8446C36.8615 33.3764 36.1423 33.22 35.4244 33.22C33.7779 33.22 32.3718 34.4669 32.0979 36.2162C31.9556 37.0886 32.1579 37.9229 32.6529 38.5048C33.107 39.0398 33.7567 39.2627 34.5295 39.2627C35.856 39.2627 36.5918 38.4097 36.5918 38.4097L36.5253 38.8238C36.5002 38.9821 36.6221 39.124 36.7809 39.124H38.123C38.3365 39.124 38.5165 38.9693 38.5501 38.7587L39.3554 33.6594C39.3809 33.5025 39.2594 33.36 39.1002 33.36ZM37.0234 36.2598C36.8796 37.1109 36.204 37.6823 35.3426 37.6823C34.9099 37.6823 34.564 37.5436 34.3421 37.2806C34.1219 37.0196 34.0381 36.6478 34.1082 36.2339C34.2425 35.3899 34.9295 34.8 35.7779 34.8C36.2009 34.8 36.5449 34.9404 36.7714 35.2057C36.9983 35.4737 37.0885 35.8476 37.0234 36.2598ZM45.5379 33.3598H47.0352C47.2449 33.3598 47.3672 33.5949 47.2481 33.7669L42.2685 40.9547C42.1878 41.0712 42.055 41.1404 41.9131 41.1404H40.4177C40.2072 41.1404 40.0842 40.9034 40.2061 40.731L41.7567 38.5423L40.1076 33.7027C40.0506 33.5345 40.1748 33.3598 40.3537 33.3598H41.8249C42.016 33.3598 42.1847 33.4853 42.2398 33.6682L43.115 36.5912L45.1801 33.5495C45.2609 33.4307 45.3952 33.3598 45.5379 33.3598Z" fill="#253B80"/>
<path fill-rule="evenodd" clip-rule="evenodd" d="M61.7709 38.8248L63.0478 30.7008C63.0673 30.5747 63.1766 30.4818 63.3035 30.4814H64.741C64.8998 30.4814 65.0217 30.6237 64.9966 30.7812L63.7374 38.7589C63.7046 38.9694 63.5235 39.1242 63.3103 39.1242H62.0265C61.8677 39.1242 61.7459 38.9823 61.7709 38.8248ZM51.9921 30.4818H48.8803C48.6679 30.4818 48.4869 30.6366 48.4536 30.8467L47.1953 38.8248C47.1702 38.9823 47.2921 39.1242 47.4511 39.1242H49.0477C49.1961 39.1242 49.3231 39.016 49.3462 38.8686L49.7033 36.6071C49.7361 36.3964 49.9176 36.2418 50.13 36.2418H51.1145C53.1644 36.2418 54.3469 35.2501 54.6562 33.2848C54.7957 32.425 54.6616 31.7494 54.2591 31.2761C53.8172 30.7568 53.0334 30.4818 51.9921 30.4818ZM52.3511 33.3957C52.1814 34.5122 51.3284 34.5122 50.5031 34.5122H50.034L50.3639 32.4271C50.3835 32.3012 50.4917 32.2084 50.6195 32.2084H50.8347C51.3961 32.2084 51.9267 32.2084 52.2004 32.5286C52.3637 32.7197 52.4134 33.0035 52.3511 33.3957ZM61.2915 33.3599H59.8027C59.6747 33.3599 59.5661 33.4528 59.5469 33.5789L59.481 33.9955L59.3764 33.8446C59.0538 33.3764 58.3351 33.2199 57.6172 33.2199C55.9707 33.2199 54.565 34.4669 54.2911 36.2162C54.1492 37.0886 54.3507 37.9229 54.8456 38.5048C55.3006 39.0397 55.9494 39.2627 56.7223 39.2627C58.0488 39.2627 58.7844 38.4096 58.7844 38.4096L58.7181 38.8237C58.693 38.9821 58.8149 39.124 58.9747 39.124H60.3162C60.5286 39.124 60.7096 38.9692 60.7429 38.7587L61.5486 33.6593C61.5732 33.5025 61.4513 33.3599 61.2915 33.3599ZM59.2149 36.2597C59.072 37.1109 58.3955 37.6823 57.5338 37.6823C57.1021 37.6823 56.7555 37.5435 56.5334 37.2806C56.3132 37.0195 56.2305 36.6477 56.2997 36.2338C56.4347 35.3898 57.1208 34.7999 57.9692 34.7999C58.3924 34.7999 58.7362 34.9404 58.9629 35.2056C59.1907 35.4736 59.2808 35.8475 59.2149 36.2597Z" fill="#179BD7"/>
<path d="M41.314 27.6277L41.6966 25.1983L40.8446 25.1785H36.7761L39.6035 7.2508C39.6121 7.19668 39.6408 7.14621 39.6824 7.11038C39.7241 7.07455 39.7776 7.0548 39.8332 7.0548H46.6932C48.9707 7.0548 50.5423 7.52872 51.3629 8.46411C51.7475 8.90293 51.9926 9.36148 52.1111 9.86611C52.2353 10.3956 52.2376 11.0282 52.1162 11.7998L52.1073 11.8561V12.3505L52.4922 12.5685C52.8162 12.7403 53.0734 12.9371 53.2709 13.1623C53.6002 13.5375 53.813 14.0144 53.9029 14.5797C53.9957 15.1611 53.965 15.853 53.813 16.6363C53.6374 17.5373 53.3536 18.322 52.9705 18.9642C52.6178 19.5558 52.1688 20.0465 51.6357 20.4269C51.1267 20.7881 50.5218 21.0625 49.838 21.238C49.1753 21.4105 48.4199 21.4976 47.5913 21.4976H47.0574C46.6757 21.4976 46.3048 21.6351 46.0138 21.8816C45.722 22.1332 45.5288 22.4768 45.4696 22.8528L45.4294 23.0715L44.7536 27.3534L44.7229 27.5107C44.7149 27.5606 44.701 27.5854 44.6806 27.6023C44.6622 27.6174 44.6359 27.6277 44.6102 27.6277H41.314Z" fill="#253B80"/>
<path d="M52.8564 11.9134C52.836 12.0443 52.8126 12.1782 52.7863 12.3156C51.8814 16.9605 48.7865 18.5651 44.8334 18.5651H42.8208C42.3374 18.5651 41.93 18.9161 41.8547 19.3929L40.8241 25.9284L40.5323 27.7808C40.4833 28.0939 40.7248 28.3762 41.0406 28.3762H44.6105C45.0332 28.3762 45.3922 28.069 45.4587 27.6522L45.4938 27.4707L46.166 23.2054L46.2092 22.9715C46.2749 22.5532 46.6347 22.2461 47.0574 22.2461H47.5913C51.0498 22.2461 53.7574 20.8419 54.5488 16.7784C54.8793 15.0809 54.7082 13.6635 53.8334 12.6667C53.5688 12.3661 53.2404 12.1167 52.8564 11.9134Z" fill="#179BD7"/>
<path d="M51.9096 11.5363C51.7715 11.4961 51.6288 11.4595 51.4825 11.4266C51.3355 11.3945 51.1848 11.3659 51.0298 11.3411C50.4871 11.2533 49.8926 11.2116 49.2555 11.2116H43.8787C43.7463 11.2116 43.6206 11.2416 43.5079 11.2957C43.2599 11.4149 43.0757 11.6497 43.0311 11.9371L41.8871 19.1819L41.8542 19.3933C41.9296 18.9164 42.337 18.5654 42.8204 18.5654H44.833C48.7861 18.5654 51.8812 16.9601 52.7859 12.316C52.8128 12.1785 52.8355 12.0446 52.856 11.9137C52.6271 11.7923 52.3791 11.6885 52.1122 11.6C52.0465 11.578 51.9785 11.5568 51.9096 11.5363Z" fill="#222D65"/>
<path d="M43.0311 11.937C43.0758 11.6495 43.2602 11.4148 43.508 11.2963C43.6215 11.2422 43.7465 11.2122 43.8787 11.2122H49.2558C49.8928 11.2122 50.4874 11.2539 51.0299 11.3416C51.185 11.3665 51.3358 11.395 51.4827 11.4272C51.629 11.4601 51.7716 11.4967 51.9099 11.5369C51.9785 11.5574 52.0465 11.5786 52.1131 11.5998C52.38 11.6883 52.628 11.7929 52.8568 11.9136C53.1261 10.1971 52.8547 9.02837 51.9267 7.9701C50.9036 6.80506 49.0568 6.30628 46.6939 6.30628H39.8337C39.3509 6.30628 38.9393 6.65731 38.8646 7.13489L36.0073 25.2469C35.9509 25.6052 36.2273 25.9285 36.5886 25.9285H40.824L41.8873 19.1817L43.0311 11.937Z" fill="#253B80"/>
</svg>
