<svg width="90" height="48" viewBox="0 0 90 48" fill="none" xmlns="http://www.w3.org/2000/svg">
<rect x="0.5" y="0.5" width="89" height="47" rx="5.5" />
<path fill-rule="evenodd" clip-rule="evenodd" d="M31.2505 32.5165H27.0099L23.8299 20.3847C23.679 19.8267 23.3585 19.3333 22.8871 19.1008C21.7106 18.5165 20.4142 18.0514 19 17.8169V17.3498H25.8313C26.7742 17.3498 27.4813 18.0514 27.5991 18.8663L29.2491 27.6173L33.4877 17.3498H37.6104L31.2505 32.5165ZM39.9675 32.5165H35.9626L39.2604 17.3498H43.2653L39.9675 32.5165ZM48.4467 21.5514C48.5646 20.7346 49.2717 20.2675 50.0967 20.2675C51.3931 20.1502 52.8052 20.3848 53.9838 20.9671L54.6909 17.7016C53.5123 17.2345 52.216 17 51.0395 17C47.1524 17 44.3239 19.1008 44.3239 22.0165C44.3239 24.2346 46.3274 25.3992 47.7417 26.1008C49.2717 26.8004 49.861 27.2675 49.7431 27.9671C49.7431 29.0165 48.5646 29.4836 47.3881 29.4836C45.9739 29.4836 44.5596 29.1338 43.2653 28.5494L42.5582 31.8169C43.9724 32.3992 45.5025 32.6338 46.9167 32.6338C51.2752 32.749 53.9838 30.6502 53.9838 27.5C53.9838 23.5329 48.4467 23.3004 48.4467 21.5514ZM68 32.5165L64.82 17.3498H61.4044C60.6972 17.3498 59.9901 17.8169 59.7544 18.5165L53.8659 32.5165H57.9887L58.8116 30.3004H63.8772L64.3486 32.5165H68ZM61.9936 21.4342L63.1701 27.1502H59.8723L61.9936 21.4342Z" fill="#172B85"/>
</svg>
