<svg width="150" height="150" viewBox="0 0 150 150" fill="none" xmlns="http://www.w3.org/2000/svg">
<mask id="path-1-outside-1_109_2" maskUnits="userSpaceOnUse" x="41" y="7" width="68" height="44" fill="black">
<rect fill="white" x="41" y="7" width="68" height="44"/>
<path d="M99 41C99 34.6348 96.4714 28.5303 91.9706 24.0294C87.4697 19.5286 81.3652 17 75 17C68.6348 17 62.5303 19.5286 58.0294 24.0294C53.5286 28.5303 51 34.6348 51 41L75 41H99Z"/>
</mask>
<path d="M99 41C99 34.6348 96.4714 28.5303 91.9706 24.0294C87.4697 19.5286 81.3652 17 75 17C68.6348 17 62.5303 19.5286 58.0294 24.0294C53.5286 28.5303 51 34.6348 51 41L75 41H99Z" stroke="#0F96DF" stroke-width="20" mask="url(#path-1-outside-1_109_2)"/>
<path d="M50 88C50 94.3652 52.5286 100.47 57.0294 104.971C61.5303 109.471 67.6348 112 74 112C80.3652 112 86.4697 109.471 90.9706 104.971C95.4714 100.47 98 94.3652 98 88" stroke="#0F96DF" stroke-width="10"/>
<rect x="23" y="47" width="103" height="86" rx="19" stroke="#0F96DF" stroke-width="10"/>
</svg>
