<svg width="1026" height="216" viewBox="0 0 1026 216" fill="none" xmlns="http://www.w3.org/2000/svg">
<mask id="path-1-outside-1_116_53" maskUnits="userSpaceOnUse" x="41" y="43" width="68" height="44" fill="black">
<rect fill="white" x="41" y="43" width="68" height="44"/>
<path d="M99 77C99 70.6348 96.4714 64.5303 91.9706 60.0294C87.4697 55.5286 81.3652 53 75 53C68.6348 53 62.5303 55.5286 58.0294 60.0294C53.5286 64.5303 51 70.6348 51 77L75 77H99Z"/>
</mask>
<path d="M99 77C99 70.6348 96.4714 64.5303 91.9706 60.0294C87.4697 55.5286 81.3652 53 75 53C68.6348 53 62.5303 55.5286 58.0294 60.0294C53.5286 64.5303 51 70.6348 51 77L75 77H99Z" stroke="#0F96DF" stroke-width="20" mask="url(#path-1-outside-1_116_53)"/>
<path d="M50 124C50 130.365 52.5286 136.47 57.0294 140.971C61.5303 145.471 67.6348 148 74 148C80.3652 148 86.4697 145.471 90.9706 140.971C95.4714 136.47 98 130.365 98 124" stroke="#0F96DF" stroke-width="10"/>
<rect x="23" y="83" width="103" height="86" rx="19" stroke="#0F96DF" stroke-width="10"/>
<path d="M256.232 88.592C256.232 93.968 254.936 99.008 252.344 103.712C249.848 108.416 245.864 112.208 240.392 115.088C235.016 117.968 228.2 119.408 219.944 119.408H203.096V158H182.936V57.488H219.944C227.72 57.488 234.344 58.832 239.816 61.52C245.288 64.208 249.368 67.904 252.056 72.608C254.84 77.312 256.232 82.64 256.232 88.592ZM219.08 103.136C224.648 103.136 228.776 101.888 231.464 99.392C234.152 96.8 235.496 93.2 235.496 88.592C235.496 78.8 230.024 73.904 219.08 73.904H203.096V103.136H219.08ZM344.705 116.384C344.705 119.264 344.513 121.856 344.129 124.16H285.809C286.289 129.92 288.305 134.432 291.857 137.696C295.409 140.96 299.777 142.592 304.961 142.592C312.449 142.592 317.777 139.376 320.945 132.944H342.689C340.385 140.624 335.969 146.96 329.441 151.952C322.913 156.848 314.897 159.296 305.393 159.296C297.713 159.296 290.801 157.616 284.657 154.256C278.609 150.8 273.857 145.952 270.401 139.712C267.041 133.472 265.361 126.272 265.361 118.112C265.361 109.856 267.041 102.608 270.401 96.368C273.761 90.128 278.465 85.328 284.513 81.968C290.561 78.608 297.521 76.928 305.393 76.928C312.977 76.928 319.745 78.56 325.697 81.824C331.745 85.088 336.401 89.744 339.665 95.792C343.025 101.744 344.705 108.608 344.705 116.384ZM323.825 110.624C323.729 105.44 321.857 101.312 318.209 98.24C314.561 95.072 310.097 93.488 304.817 93.488C299.825 93.488 295.601 95.024 292.145 98.096C288.785 101.072 286.721 105.248 285.953 110.624H323.825ZM379.58 89.888C382.172 86.048 385.724 82.928 390.236 80.528C394.844 78.128 400.076 76.928 405.932 76.928C412.748 76.928 418.892 78.608 424.364 81.968C429.932 85.328 434.3 90.128 437.468 96.368C440.732 102.512 442.364 109.664 442.364 117.824C442.364 125.984 440.732 133.232 437.468 139.568C434.3 145.808 429.932 150.656 424.364 154.112C418.892 157.568 412.748 159.296 405.932 159.296C399.98 159.296 394.748 158.144 390.236 155.84C385.82 153.44 382.268 150.368 379.58 146.624V158H359.42V51.44H379.58V89.888ZM421.772 117.824C421.772 113.024 420.764 108.896 418.748 105.44C416.828 101.888 414.236 99.2 410.972 97.376C407.804 95.552 404.348 94.64 400.604 94.64C396.956 94.64 393.5 95.6 390.236 97.52C387.068 99.344 384.476 102.032 382.46 105.584C380.54 109.136 379.58 113.312 379.58 118.112C379.58 122.912 380.54 127.088 382.46 130.64C384.476 134.192 387.068 136.928 390.236 138.848C393.5 140.672 396.956 141.584 400.604 141.584C404.348 141.584 407.804 140.624 410.972 138.704C414.236 136.784 416.828 134.048 418.748 130.496C420.764 126.944 421.772 122.72 421.772 117.824ZM477.174 89.888C479.766 86.048 483.318 82.928 487.83 80.528C492.438 78.128 497.67 76.928 503.526 76.928C510.342 76.928 516.486 78.608 521.958 81.968C527.526 85.328 531.894 90.128 535.062 96.368C538.326 102.512 539.958 109.664 539.958 117.824C539.958 125.984 538.326 133.232 535.062 139.568C531.894 145.808 527.526 150.656 521.958 154.112C516.486 157.568 510.342 159.296 503.526 159.296C497.574 159.296 492.342 158.144 487.83 155.84C483.414 153.44 479.862 150.368 477.174 146.624V158H457.014V51.44H477.174V89.888ZM519.366 117.824C519.366 113.024 518.358 108.896 516.342 105.44C514.422 101.888 511.83 99.2 508.566 97.376C505.398 95.552 501.942 94.64 498.198 94.64C494.55 94.64 491.094 95.6 487.83 97.52C484.662 99.344 482.07 102.032 480.054 105.584C478.134 109.136 477.174 113.312 477.174 118.112C477.174 122.912 478.134 127.088 480.054 130.64C482.07 134.192 484.662 136.928 487.83 138.848C491.094 140.672 494.55 141.584 498.198 141.584C501.942 141.584 505.398 140.624 508.566 138.704C511.83 136.784 514.422 134.048 516.342 130.496C518.358 126.944 519.366 122.72 519.366 117.824ZM574.768 51.44V158H554.608V51.44H574.768ZM668.846 116.384C668.846 119.264 668.654 121.856 668.27 124.16H609.95C610.43 129.92 612.446 134.432 615.998 137.696C619.55 140.96 623.918 142.592 629.102 142.592C636.59 142.592 641.918 139.376 645.086 132.944H666.83C664.526 140.624 660.11 146.96 653.582 151.952C647.054 156.848 639.038 159.296 629.534 159.296C621.854 159.296 614.942 157.616 608.798 154.256C602.75 150.8 597.998 145.952 594.542 139.712C591.182 133.472 589.502 126.272 589.502 118.112C589.502 109.856 591.182 102.608 594.542 96.368C597.902 90.128 602.606 85.328 608.654 81.968C614.702 78.608 621.662 76.928 629.534 76.928C637.118 76.928 643.886 78.56 649.838 81.824C655.886 85.088 660.542 89.744 663.806 95.792C667.166 101.744 668.846 108.608 668.846 116.384ZM647.966 110.624C647.87 105.44 645.998 101.312 642.35 98.24C638.702 95.072 634.238 93.488 628.958 93.488C623.966 93.488 619.742 95.024 616.286 98.096C612.926 101.072 610.862 105.248 610.094 110.624H647.966ZM712.978 107.6C712.978 97.712 715.186 88.88 719.602 81.104C724.114 73.232 730.21 67.136 737.89 62.816C745.666 58.4 754.354 56.192 763.954 56.192C775.186 56.192 785.026 59.072 793.474 64.832C801.922 70.592 807.826 78.56 811.186 88.736H788.002C785.698 83.936 782.434 80.336 778.21 77.936C774.082 75.536 769.282 74.336 763.81 74.336C757.954 74.336 752.722 75.728 748.114 78.512C743.602 81.2 740.05 85.04 737.458 90.032C734.962 95.024 733.714 100.88 733.714 107.6C733.714 114.224 734.962 120.08 737.458 125.168C740.05 130.16 743.602 134.048 748.114 136.832C752.722 139.52 757.954 140.864 763.81 140.864C769.282 140.864 774.082 139.664 778.21 137.264C782.434 134.768 785.698 131.12 788.002 126.32H811.186C807.826 136.592 801.922 144.608 793.474 150.368C785.122 156.032 775.282 158.864 763.954 158.864C754.354 158.864 745.666 156.704 737.89 152.384C730.21 147.968 724.114 141.872 719.602 134.096C715.186 126.32 712.978 117.488 712.978 107.6ZM823.221 117.824C823.221 109.76 824.805 102.608 827.973 96.368C831.237 90.128 835.605 85.328 841.077 81.968C846.645 78.608 852.837 76.928 859.653 76.928C865.605 76.928 870.789 78.128 875.205 80.528C879.717 82.928 883.317 85.952 886.005 89.6V78.224H906.309V158H886.005V146.336C883.413 150.08 879.813 153.2 875.205 155.696C870.693 158.096 865.461 159.296 859.509 159.296C852.789 159.296 846.645 157.568 841.077 154.112C835.605 150.656 831.237 145.808 827.973 139.568C824.805 133.232 823.221 125.984 823.221 117.824ZM886.005 118.112C886.005 113.216 885.045 109.04 883.125 105.584C881.205 102.032 878.613 99.344 875.349 97.52C872.085 95.6 868.581 94.64 864.837 94.64C861.093 94.64 857.637 95.552 854.469 97.376C851.301 99.2 848.709 101.888 846.693 105.44C844.773 108.896 843.813 113.024 843.813 117.824C843.813 122.624 844.773 126.848 846.693 130.496C848.709 134.048 851.301 136.784 854.469 138.704C857.733 140.624 861.189 141.584 864.837 141.584C868.581 141.584 872.085 140.672 875.349 138.848C878.613 136.928 881.205 134.24 883.125 130.784C885.045 127.232 886.005 123.008 886.005 118.112ZM946.159 90.608C948.751 86.384 952.111 83.072 956.239 80.672C960.463 78.272 965.263 77.072 970.639 77.072V98.24H965.311C958.975 98.24 954.175 99.728 950.911 102.704C947.743 105.68 946.159 110.864 946.159 118.256V158H925.999V78.224H946.159V90.608ZM1007.69 94.784V133.376C1007.69 136.064 1008.31 138.032 1009.56 139.28C1010.91 140.432 1013.11 141.008 1016.19 141.008H1025.55V158H1012.87C995.881 158 987.385 149.744 987.385 133.232V94.784H977.881V78.224H987.385V58.496H1007.69V78.224H1025.55V94.784H1007.69Z" fill="#ECECEC"/>
</svg>
