<svg width="1012" height="216" viewBox="0 0 1012 216" fill="none" xmlns="http://www.w3.org/2000/svg">
<mask id="path-1-outside-1_108_45" maskUnits="userSpaceOnUse" x="22" y="37" width="68" height="44" fill="black">
<rect fill="white" x="22" y="37" width="68" height="44"/>
<path d="M80 71C80 64.6348 77.4714 58.5303 72.9706 54.0294C68.4697 49.5286 62.3652 47 56 47C49.6348 47 43.5303 49.5286 39.0294 54.0294C34.5286 58.5303 32 64.6348 32 71L56 71H80Z"/>
</mask>
<path d="M80 71C80 64.6348 77.4714 58.5303 72.9706 54.0294C68.4697 49.5286 62.3652 47 56 47C49.6348 47 43.5303 49.5286 39.0294 54.0294C34.5286 58.5303 32 64.6348 32 71L56 71H80Z" stroke="#0F96DF" stroke-width="20" mask="url(#path-1-outside-1_108_45)"/>
<path d="M32 117C32 123.365 34.5286 129.47 39.0294 133.971C43.5303 138.471 49.6348 141 56 141C62.3652 141 68.4697 138.471 72.9706 133.971C77.4714 129.47 80 123.365 80 117" stroke="#0F96DF" stroke-width="10"/>
<rect x="5" y="76" width="103" height="86" rx="19" stroke="#0F96DF" stroke-width="10"/>
<path d="M239.232 88.592C239.232 93.968 237.936 99.008 235.344 103.712C232.848 108.416 228.864 112.208 223.392 115.088C218.016 117.968 211.2 119.408 202.944 119.408H186.096V158H165.936V57.488H202.944C210.72 57.488 217.344 58.832 222.816 61.52C228.288 64.208 232.368 67.904 235.056 72.608C237.84 77.312 239.232 82.64 239.232 88.592ZM202.08 103.136C207.648 103.136 211.776 101.888 214.464 99.392C217.152 96.8 218.496 93.2 218.496 88.592C218.496 78.8 213.024 73.904 202.08 73.904H186.096V103.136H202.08ZM327.705 116.384C327.705 119.264 327.513 121.856 327.129 124.16H268.809C269.289 129.92 271.305 134.432 274.857 137.696C278.409 140.96 282.777 142.592 287.961 142.592C295.449 142.592 300.777 139.376 303.945 132.944H325.689C323.385 140.624 318.969 146.96 312.441 151.952C305.913 156.848 297.897 159.296 288.393 159.296C280.713 159.296 273.801 157.616 267.657 154.256C261.609 150.8 256.857 145.952 253.401 139.712C250.041 133.472 248.361 126.272 248.361 118.112C248.361 109.856 250.041 102.608 253.401 96.368C256.761 90.128 261.465 85.328 267.513 81.968C273.561 78.608 280.521 76.928 288.393 76.928C295.977 76.928 302.745 78.56 308.697 81.824C314.745 85.088 319.401 89.744 322.665 95.792C326.025 101.744 327.705 108.608 327.705 116.384ZM306.825 110.624C306.729 105.44 304.857 101.312 301.209 98.24C297.561 95.072 293.097 93.488 287.817 93.488C282.825 93.488 278.601 95.024 275.145 98.096C271.785 101.072 269.721 105.248 268.953 110.624H306.825ZM362.58 89.888C365.172 86.048 368.724 82.928 373.236 80.528C377.844 78.128 383.076 76.928 388.932 76.928C395.748 76.928 401.892 78.608 407.364 81.968C412.932 85.328 417.3 90.128 420.468 96.368C423.732 102.512 425.364 109.664 425.364 117.824C425.364 125.984 423.732 133.232 420.468 139.568C417.3 145.808 412.932 150.656 407.364 154.112C401.892 157.568 395.748 159.296 388.932 159.296C382.98 159.296 377.748 158.144 373.236 155.84C368.82 153.44 365.268 150.368 362.58 146.624V158H342.42V51.44H362.58V89.888ZM404.772 117.824C404.772 113.024 403.764 108.896 401.748 105.44C399.828 101.888 397.236 99.2 393.972 97.376C390.804 95.552 387.348 94.64 383.604 94.64C379.956 94.64 376.5 95.6 373.236 97.52C370.068 99.344 367.476 102.032 365.46 105.584C363.54 109.136 362.58 113.312 362.58 118.112C362.58 122.912 363.54 127.088 365.46 130.64C367.476 134.192 370.068 136.928 373.236 138.848C376.5 140.672 379.956 141.584 383.604 141.584C387.348 141.584 390.804 140.624 393.972 138.704C397.236 136.784 399.828 134.048 401.748 130.496C403.764 126.944 404.772 122.72 404.772 117.824ZM460.174 89.888C462.766 86.048 466.318 82.928 470.83 80.528C475.438 78.128 480.67 76.928 486.526 76.928C493.342 76.928 499.486 78.608 504.958 81.968C510.526 85.328 514.894 90.128 518.062 96.368C521.326 102.512 522.958 109.664 522.958 117.824C522.958 125.984 521.326 133.232 518.062 139.568C514.894 145.808 510.526 150.656 504.958 154.112C499.486 157.568 493.342 159.296 486.526 159.296C480.574 159.296 475.342 158.144 470.83 155.84C466.414 153.44 462.862 150.368 460.174 146.624V158H440.014V51.44H460.174V89.888ZM502.366 117.824C502.366 113.024 501.358 108.896 499.342 105.44C497.422 101.888 494.83 99.2 491.566 97.376C488.398 95.552 484.942 94.64 481.198 94.64C477.55 94.64 474.094 95.6 470.83 97.52C467.662 99.344 465.07 102.032 463.054 105.584C461.134 109.136 460.174 113.312 460.174 118.112C460.174 122.912 461.134 127.088 463.054 130.64C465.07 134.192 467.662 136.928 470.83 138.848C474.094 140.672 477.55 141.584 481.198 141.584C484.942 141.584 488.398 140.624 491.566 138.704C494.83 136.784 497.422 134.048 499.342 130.496C501.358 126.944 502.366 122.72 502.366 117.824ZM557.768 51.44V158H537.608V51.44H557.768ZM651.846 116.384C651.846 119.264 651.654 121.856 651.27 124.16H592.95C593.43 129.92 595.446 134.432 598.998 137.696C602.55 140.96 606.918 142.592 612.102 142.592C619.59 142.592 624.918 139.376 628.086 132.944H649.83C647.526 140.624 643.11 146.96 636.582 151.952C630.054 156.848 622.038 159.296 612.534 159.296C604.854 159.296 597.942 157.616 591.798 154.256C585.75 150.8 580.998 145.952 577.542 139.712C574.182 133.472 572.502 126.272 572.502 118.112C572.502 109.856 574.182 102.608 577.542 96.368C580.902 90.128 585.606 85.328 591.654 81.968C597.702 78.608 604.662 76.928 612.534 76.928C620.118 76.928 626.886 78.56 632.838 81.824C638.886 85.088 643.542 89.744 646.806 95.792C650.166 101.744 651.846 108.608 651.846 116.384ZM630.966 110.624C630.87 105.44 628.998 101.312 625.35 98.24C621.702 95.072 617.238 93.488 611.958 93.488C606.966 93.488 602.742 95.024 599.286 98.096C595.926 101.072 593.862 105.248 593.094 110.624H630.966ZM695.978 107.6C695.978 97.712 698.186 88.88 702.602 81.104C707.114 73.232 713.21 67.136 720.89 62.816C728.666 58.4 737.354 56.192 746.954 56.192C758.186 56.192 768.026 59.072 776.474 64.832C784.922 70.592 790.826 78.56 794.186 88.736H771.002C768.698 83.936 765.434 80.336 761.21 77.936C757.082 75.536 752.282 74.336 746.81 74.336C740.954 74.336 735.722 75.728 731.114 78.512C726.602 81.2 723.05 85.04 720.458 90.032C717.962 95.024 716.714 100.88 716.714 107.6C716.714 114.224 717.962 120.08 720.458 125.168C723.05 130.16 726.602 134.048 731.114 136.832C735.722 139.52 740.954 140.864 746.81 140.864C752.282 140.864 757.082 139.664 761.21 137.264C765.434 134.768 768.698 131.12 771.002 126.32H794.186C790.826 136.592 784.922 144.608 776.474 150.368C768.122 156.032 758.282 158.864 746.954 158.864C737.354 158.864 728.666 156.704 720.89 152.384C713.21 147.968 707.114 141.872 702.602 134.096C698.186 126.32 695.978 117.488 695.978 107.6ZM806.221 117.824C806.221 109.76 807.805 102.608 810.973 96.368C814.237 90.128 818.605 85.328 824.077 81.968C829.645 78.608 835.837 76.928 842.653 76.928C848.605 76.928 853.789 78.128 858.205 80.528C862.717 82.928 866.317 85.952 869.005 89.6V78.224H889.309V158H869.005V146.336C866.413 150.08 862.813 153.2 858.205 155.696C853.693 158.096 848.461 159.296 842.509 159.296C835.789 159.296 829.645 157.568 824.077 154.112C818.605 150.656 814.237 145.808 810.973 139.568C807.805 133.232 806.221 125.984 806.221 117.824ZM869.005 118.112C869.005 113.216 868.045 109.04 866.125 105.584C864.205 102.032 861.613 99.344 858.349 97.52C855.085 95.6 851.581 94.64 847.837 94.64C844.093 94.64 840.637 95.552 837.469 97.376C834.301 99.2 831.709 101.888 829.693 105.44C827.773 108.896 826.813 113.024 826.813 117.824C826.813 122.624 827.773 126.848 829.693 130.496C831.709 134.048 834.301 136.784 837.469 138.704C840.733 140.624 844.189 141.584 847.837 141.584C851.581 141.584 855.085 140.672 858.349 138.848C861.613 136.928 864.205 134.24 866.125 130.784C868.045 127.232 869.005 123.008 869.005 118.112ZM929.159 90.608C931.751 86.384 935.111 83.072 939.239 80.672C943.463 78.272 948.263 77.072 953.639 77.072V98.24H948.311C941.975 98.24 937.175 99.728 933.911 102.704C930.743 105.68 929.159 110.864 929.159 118.256V158H908.999V78.224H929.159V90.608ZM990.689 94.784V133.376C990.689 136.064 991.313 138.032 992.561 139.28C993.905 140.432 996.113 141.008 999.185 141.008H1008.55V158H995.873C978.881 158 970.385 149.744 970.385 133.232V94.784H960.881V78.224H970.385V58.496H990.689V78.224H1008.55V94.784H990.689Z" fill="#333333"/>
</svg>
